<svg width="82" height="30" viewBox="0 0 82 30" fill="none" xmlns="http://www.w3.org/2000/svg">
<path d="M11.64 29.48C9.69333 29.48 7.76 29.2267 5.84 28.72C3.92 28.1867 2.29333 27.44 0.96 26.48L3.48 21.52C4.54667 22.2933 5.78667 22.9067 7.2 23.36C8.61333 23.8133 10.04 24.04 11.48 24.04C13.1067 24.04 14.3867 23.72 15.32 23.08C16.2533 22.44 16.72 21.56 16.72 20.44C16.72 19.3733 16.3067 18.5333 15.48 17.92C14.6533 17.3067 13.32 17 11.48 17H8.52V12.72L16.32 3.88L17.04 6.2H2.36V0.999998H21.96V5.2L14.2 14.04L10.92 12.16H12.8C16.24 12.16 18.84 12.9333 20.6 14.48C22.36 16.0267 23.24 18.0133 23.24 20.44C23.24 22.0133 22.8267 23.4933 22 24.88C21.1733 26.24 19.9067 27.3467 18.2 28.2C16.4933 29.0533 14.3067 29.48 11.64 29.48ZM25.3966 29V24.8L36.1966 14.6C37.0499 13.8267 37.6766 13.1333 38.0766 12.52C38.4766 11.9067 38.7432 11.3467 38.8766 10.84C39.0366 10.3333 39.1166 9.86667 39.1166 9.44C39.1166 8.32 38.7299 7.46667 37.9566 6.88C37.2099 6.26667 36.1032 5.96 34.6366 5.96C33.4632 5.96 32.3699 6.18667 31.3566 6.64C30.3699 7.09333 29.5299 7.8 28.8366 8.76L24.1166 5.72C25.1832 4.12 26.6766 2.85333 28.5966 1.92C30.5166 0.986666 32.7299 0.52 35.2366 0.52C37.3166 0.52 39.1299 0.866666 40.6766 1.56C42.2499 2.22667 43.4632 3.17333 44.3166 4.4C45.1966 5.62667 45.6366 7.09333 45.6366 8.8C45.6366 9.70667 45.5166 10.6133 45.2766 11.52C45.0632 12.4 44.6099 13.3333 43.9166 14.32C43.2499 15.3067 42.2632 16.4133 40.9566 17.64L31.9966 26.08L30.7566 23.72H46.5566V29H25.3966ZM53.2609 29L72.3809 0.999998H77.1409L58.0209 29H53.2609ZM55.7009 16.12C54.3409 16.12 53.1409 15.8133 52.1009 15.2C51.0609 14.56 50.2343 13.6667 49.6209 12.52C49.0343 11.3467 48.7409 9.97333 48.7409 8.4C48.7409 6.82667 49.0343 5.46667 49.6209 4.32C50.2343 3.17333 51.0609 2.28 52.1009 1.64C53.1409 1 54.3409 0.68 55.7009 0.68C57.0609 0.68 58.2609 1 59.3009 1.64C60.3409 2.28 61.1543 3.17333 61.7409 4.32C62.3276 5.46667 62.6209 6.82667 62.6209 8.4C62.6209 9.97333 62.3276 11.3467 61.7409 12.52C61.1543 13.6667 60.3409 14.56 59.3009 15.2C58.2609 15.8133 57.0609 16.12 55.7009 16.12ZM55.7009 12.84C56.5809 12.84 57.2876 12.48 57.8209 11.76C58.3543 11.0133 58.6209 9.89333 58.6209 8.4C58.6209 6.90667 58.3543 5.8 57.8209 5.08C57.2876 4.33333 56.5809 3.96 55.7009 3.96C54.8476 3.96 54.1409 4.33333 53.5809 5.08C53.0476 5.8 52.7809 6.90667 52.7809 8.4C52.7809 9.86667 53.0476 10.9733 53.5809 11.72C54.1409 12.4667 54.8476 12.84 55.7009 12.84ZM74.7009 29.32C73.3676 29.32 72.1676 29.0133 71.1009 28.4C70.0609 27.76 69.2476 26.8667 68.6609 25.72C68.0743 24.5467 67.7809 23.1733 67.7809 21.6C67.7809 20.0267 68.0743 18.6667 68.6609 17.52C69.2476 16.3733 70.0609 15.48 71.1009 14.84C72.1676 14.2 73.3676 13.88 74.7009 13.88C76.0876 13.88 77.3009 14.2 78.3409 14.84C79.3809 15.48 80.1943 16.3733 80.7809 17.52C81.3676 18.6667 81.6609 20.0267 81.6609 21.6C81.6609 23.1733 81.3676 24.5467 80.7809 25.72C80.1943 26.8667 79.3809 27.76 78.3409 28.4C77.3009 29.0133 76.0876 29.32 74.7009 29.32ZM74.7009 26.04C75.5809 26.04 76.2876 25.68 76.8209 24.96C77.3543 24.2133 77.6209 23.0933 77.6209 21.6C77.6209 20.1333 77.3543 19.0267 76.8209 18.28C76.2876 17.5333 75.5809 17.16 74.7009 17.16C73.8476 17.16 73.1409 17.5333 72.5809 18.28C72.0476 19 71.7809 20.1067 71.7809 21.6C71.7809 23.0933 72.0476 24.2133 72.5809 24.96C73.1409 25.68 73.8476 26.04 74.7009 26.04Z" fill="#0FF1F6"/>
</svg>
