<svg width="80" height="30" viewBox="0 0 80 30" fill="none" xmlns="http://www.w3.org/2000/svg">
<path d="M5.04 29L16.32 3.48L18 6.28H2.92L5.8 3.24V10.84H0.04V0.999998H22.48V5.2L12.08 29H5.04ZM33.8206 29.48C31.874 29.48 29.9406 29.2267 28.0206 28.72C26.1273 28.1867 24.5006 27.44 23.1406 26.48L25.7006 21.52C26.7673 22.2933 27.994 22.9067 29.3806 23.36C30.794 23.8133 32.2206 24.04 33.6606 24.04C35.2873 24.04 36.5673 23.72 37.5006 23.08C38.434 22.44 38.9006 21.5467 38.9006 20.4C38.9006 19.68 38.714 19.04 38.3406 18.48C37.9673 17.92 37.3006 17.4933 36.3406 17.2C35.4073 16.9067 34.0873 16.76 32.3806 16.76H25.2206L26.6606 0.999998H43.7406V6.2H28.9806L32.3406 3.24L31.3406 14.48L27.9806 11.52H33.9006C36.674 11.52 38.9006 11.9067 40.5806 12.68C42.2873 13.4267 43.5273 14.4533 44.3006 15.76C45.074 17.0667 45.4606 18.5467 45.4606 20.2C45.4606 21.8533 45.0473 23.3867 44.2206 24.8C43.394 26.1867 42.114 27.32 40.3806 28.2C38.674 29.0533 36.4873 29.48 33.8206 29.48ZM51.3391 29L70.4591 0.999998H75.2191L56.0991 29H51.3391ZM53.7791 16.12C52.4191 16.12 51.2191 15.8133 50.1791 15.2C49.1391 14.56 48.3124 13.6667 47.6991 12.52C47.1124 11.3467 46.8191 9.97333 46.8191 8.4C46.8191 6.82667 47.1124 5.46667 47.6991 4.32C48.3124 3.17333 49.1391 2.28 50.1791 1.64C51.2191 1 52.4191 0.68 53.7791 0.68C55.1391 0.68 56.3391 1 57.3791 1.64C58.4191 2.28 59.2324 3.17333 59.8191 4.32C60.4057 5.46667 60.6991 6.82667 60.6991 8.4C60.6991 9.97333 60.4057 11.3467 59.8191 12.52C59.2324 13.6667 58.4191 14.56 57.3791 15.2C56.3391 15.8133 55.1391 16.12 53.7791 16.12ZM53.7791 12.84C54.6591 12.84 55.3657 12.48 55.8991 11.76C56.4324 11.0133 56.6991 9.89333 56.6991 8.4C56.6991 6.90667 56.4324 5.8 55.8991 5.08C55.3657 4.33333 54.6591 3.96 53.7791 3.96C52.9257 3.96 52.2191 4.33333 51.6591 5.08C51.1257 5.8 50.8591 6.90667 50.8591 8.4C50.8591 9.86667 51.1257 10.9733 51.6591 11.72C52.2191 12.4667 52.9257 12.84 53.7791 12.84ZM72.7791 29.32C71.4457 29.32 70.2457 29.0133 69.1791 28.4C68.1391 27.76 67.3257 26.8667 66.7391 25.72C66.1524 24.5467 65.8591 23.1733 65.8591 21.6C65.8591 20.0267 66.1524 18.6667 66.7391 17.52C67.3257 16.3733 68.1391 15.48 69.1791 14.84C70.2457 14.2 71.4457 13.88 72.7791 13.88C74.1657 13.88 75.3791 14.2 76.4191 14.84C77.4591 15.48 78.2724 16.3733 78.8591 17.52C79.4457 18.6667 79.7391 20.0267 79.7391 21.6C79.7391 23.1733 79.4457 24.5467 78.8591 25.72C78.2724 26.8667 77.4591 27.76 76.4191 28.4C75.3791 29.0133 74.1657 29.32 72.7791 29.32ZM72.7791 26.04C73.6591 26.04 74.3657 25.68 74.8991 24.96C75.4324 24.2133 75.6991 23.0933 75.6991 21.6C75.6991 20.1333 75.4324 19.0267 74.8991 18.28C74.3657 17.5333 73.6591 17.16 72.7791 17.16C71.9257 17.16 71.2191 17.5333 70.6591 18.28C70.1257 19 69.8591 20.1067 69.8591 21.6C69.8591 23.0933 70.1257 24.2133 70.6591 24.96C71.2191 25.68 71.9257 26.04 72.7791 26.04Z" fill="#0FF1F6"/>
</svg>
