<svg width="81" height="30" viewBox="0 0 81 30" fill="none" xmlns="http://www.w3.org/2000/svg">
<path d="M11.64 29.48C9.69333 29.48 7.76 29.2267 5.84 28.72C3.92 28.1867 2.29333 27.44 0.96 26.48L3.48 21.52C4.54667 22.2933 5.78667 22.9067 7.2 23.36C8.61333 23.8133 10.04 24.04 11.48 24.04C13.1067 24.04 14.3867 23.72 15.32 23.08C16.2533 22.44 16.72 21.56 16.72 20.44C16.72 19.3733 16.3067 18.5333 15.48 17.92C14.6533 17.3067 13.32 17 11.48 17H8.52V12.72L16.32 3.88L17.04 6.2H2.36V0.999998H21.96V5.2L14.2 14.04L10.92 12.16H12.8C16.24 12.16 18.84 12.9333 20.6 14.48C22.36 16.0267 23.24 18.0133 23.24 20.44C23.24 22.0133 22.8267 23.4933 22 24.88C21.1733 26.24 19.9067 27.3467 18.2 28.2C16.4933 29.0533 14.3067 29.48 11.64 29.48ZM34.9613 29.48C33.0146 29.48 31.0813 29.2267 29.1613 28.72C27.2679 28.1867 25.6413 27.44 24.2813 26.48L26.8413 21.52C27.9079 22.2933 29.1346 22.9067 30.5213 23.36C31.9346 23.8133 33.3613 24.04 34.8013 24.04C36.4279 24.04 37.7079 23.72 38.6413 23.08C39.5746 22.44 40.0413 21.5467 40.0413 20.4C40.0413 19.68 39.8546 19.04 39.4813 18.48C39.1079 17.92 38.4413 17.4933 37.4813 17.2C36.5479 16.9067 35.2279 16.76 33.5213 16.76H26.3613L27.8013 0.999998H44.8813V6.2H30.1213L33.4813 3.24L32.4813 14.48L29.1213 11.52H35.0413C37.8146 11.52 40.0413 11.9067 41.7213 12.68C43.4279 13.4267 44.6679 14.4533 45.4413 15.76C46.2146 17.0667 46.6013 18.5467 46.6013 20.2C46.6013 21.8533 46.1879 23.3867 45.3613 24.8C44.5346 26.1867 43.2546 27.32 41.5213 28.2C39.8146 29.0533 37.6279 29.48 34.9613 29.48ZM52.4797 29L71.5997 0.999998H76.3597L57.2397 29H52.4797ZM54.9197 16.12C53.5597 16.12 52.3597 15.8133 51.3197 15.2C50.2797 14.56 49.453 13.6667 48.8397 12.52C48.253 11.3467 47.9597 9.97333 47.9597 8.4C47.9597 6.82667 48.253 5.46667 48.8397 4.32C49.453 3.17333 50.2797 2.28 51.3197 1.64C52.3597 1 53.5597 0.68 54.9197 0.68C56.2797 0.68 57.4797 1 58.5197 1.64C59.5597 2.28 60.373 3.17333 60.9597 4.32C61.5464 5.46667 61.8397 6.82667 61.8397 8.4C61.8397 9.97333 61.5464 11.3467 60.9597 12.52C60.373 13.6667 59.5597 14.56 58.5197 15.2C57.4797 15.8133 56.2797 16.12 54.9197 16.12ZM54.9197 12.84C55.7997 12.84 56.5064 12.48 57.0397 11.76C57.573 11.0133 57.8397 9.89333 57.8397 8.4C57.8397 6.90667 57.573 5.8 57.0397 5.08C56.5064 4.33333 55.7997 3.96 54.9197 3.96C54.0664 3.96 53.3597 4.33333 52.7997 5.08C52.2664 5.8 51.9997 6.90667 51.9997 8.4C51.9997 9.86667 52.2664 10.9733 52.7997 11.72C53.3597 12.4667 54.0664 12.84 54.9197 12.84ZM73.9197 29.32C72.5864 29.32 71.3864 29.0133 70.3197 28.4C69.2797 27.76 68.4664 26.8667 67.8797 25.72C67.293 24.5467 66.9997 23.1733 66.9997 21.6C66.9997 20.0267 67.293 18.6667 67.8797 17.52C68.4664 16.3733 69.2797 15.48 70.3197 14.84C71.3864 14.2 72.5864 13.88 73.9197 13.88C75.3064 13.88 76.5197 14.2 77.5597 14.84C78.5997 15.48 79.413 16.3733 79.9997 17.52C80.5864 18.6667 80.8797 20.0267 80.8797 21.6C80.8797 23.1733 80.5864 24.5467 79.9997 25.72C79.413 26.8667 78.5997 27.76 77.5597 28.4C76.5197 29.0133 75.3064 29.32 73.9197 29.32ZM73.9197 26.04C74.7997 26.04 75.5064 25.68 76.0397 24.96C76.573 24.2133 76.8397 23.0933 76.8397 21.6C76.8397 20.1333 76.573 19.0267 76.0397 18.28C75.5064 17.5333 74.7997 17.16 73.9197 17.16C73.0664 17.16 72.3597 17.5333 71.7997 18.28C71.2664 19 70.9997 20.1067 70.9997 21.6C70.9997 23.0933 71.2664 24.2133 71.7997 24.96C72.3597 25.68 73.0664 26.04 73.9197 26.04Z" fill="#0FF1F6"/>
</svg>
